<?xml version="1.0" encoding="utf-8"?>
<!-- Generator: Adobe Illustrator 17.1.0, SVG Export Plug-In . SVG Version: 6.00 Build 0)  -->
<!-- Traced by: Phil Strahl -->
<!DOCTYPE svg PUBLIC "-//W3C//DTD SVG 1.1//EN" "http://www.w3.org/Graphics/SVG/1.1/DTD/svg11.dtd">
<svg version="1.1" id="Layer_2" xmlns="http://www.w3.org/2000/svg" xmlns:xlink="http://www.w3.org/1999/xlink" x="0px" y="0px"
	 viewBox="0 0 499 104" enable-background="new 0 0 499 104" xml:space="preserve">
<path fill="#FFFFFF" d="M3.7,4v96.4h314.5V4H3.7z M242.6,92.8c-14.8,0-22-10.9-22-24.8c0-13.8,7.9-25.1,22.6-25.1
	c9.9,0,18.2,5.3,19.6,15.5h-6.3c-1.3-6.7-6.7-10.1-13.3-10.1c-11.3,0-16.2,9.3-16.2,19.3c0,10.9,4.8,20,16.2,20
	c8.3,0,13.1-5.9,13.7-13.7h6.3C262,85.6,254.6,92.8,242.6,92.8z M304.1,49.4h-15.9v42.3h-6.3V49.4H266v-5.3h38.1V49.4z"/>
<g>
	<path fill="#FFFFFF" d="M371.3,4.9c27.3,0,41.1,21.6,41.1,44.9s-13.8,44.9-41.1,44.9s-41.1-21.6-41.1-44.9S344,4.9,371.3,4.9z
		 M371.3,85.2c20.9,0,29.7-18,29.7-35.3s-8.8-35.3-29.7-35.3c-20.9,0-29.7,18-29.7,35.3S350.3,85.2,371.3,85.2z"/>
	<path fill="#FFFFFF" d="M475.9,32.1c-1.3-12.3-9.5-17.5-21.3-17.5c-9.6,0-19.2,3.5-19.2,14.7c0,10.6,13.7,12.1,27.5,15.3
		c13.7,3.1,27.4,7.9,27.4,24.8c0,18.3-17.9,25.6-33.5,25.6c-19.2,0-35.4-9.4-35.4-30.3h10.8c0,14.4,12,20.7,25,20.7
		c10.3,0,21.7-3.2,21.7-15.6c0-11.8-13.7-13.8-27.4-16.8c-13.7-3-27.5-7-27.5-22.7c0-17.4,15.5-25.1,31.1-25.1
		c17.5,0,30.9,8.3,31.6,27.2H475.9z"/>
</g>
</svg>